<svg width="18" height="13" viewBox="0 0 18 13" fill="none" xmlns="http://www.w3.org/2000/svg">
<path d="M17.6793 5.5768L13.1779 0.381941C13.0729 0.260851 12.9484 0.164797 12.8113 0.0992637C12.6742 0.0337301 12.5272 2.55179e-09 12.3789 0C12.2305 -2.55179e-09 12.0835 0.0337301 11.9464 0.0992637C11.8094 0.164797 11.6848 0.260851 11.5799 0.381941C11.4749 0.503032 11.3917 0.646787 11.3349 0.804999C11.2781 0.963211 11.2489 1.13278 11.2489 1.30403C11.2489 1.47528 11.2781 1.64485 11.3349 1.80306C11.3917 1.96127 11.4749 2.10503 11.5799 2.22612L14.1682 5.20018H1.12535C0.826889 5.20018 0.540652 5.33701 0.329608 5.58056C0.118563 5.82412 0 6.15445 0 6.49889C0 6.84333 0.118563 7.17367 0.329608 7.41722C0.540652 7.66078 0.826889 7.79761 1.12535 7.79761H14.1682L11.5799 10.7717C11.4744 10.8924 11.3907 11.036 11.3335 11.1943C11.2764 11.3526 11.247 11.5223 11.247 11.6938C11.247 11.8652 11.2764 12.0349 11.3335 12.1932C11.3907 12.3515 11.4744 12.4951 11.5799 12.6158C11.6845 12.7376 11.8089 12.8342 11.9461 12.9001C12.0832 12.9661 12.2303 13 12.3789 13C12.5274 13 12.6745 12.9661 12.8116 12.9001C12.9488 12.8342 13.0732 12.7376 13.1779 12.6158L17.6793 7.42098C17.7817 7.29747 17.862 7.15182 17.9156 6.9924C18.0281 6.67622 18.0281 6.32157 17.9156 6.00538C17.862 5.84596 17.7817 5.70032 17.6793 5.5768Z" fill="#767676"/>
</svg>
